<svg width="22" height="24" viewBox="0 0 22 24" fill="none" xmlns="http://www.w3.org/2000/svg">
<path d="M11 24C11.7956 24 12.5587 23.6839 13.1213 23.1213C13.6839 22.5587 14 21.7956 14 21H8C8 21.7956 8.31607 22.5587 8.87868 23.1213C9.44129 23.6839 10.2044 24 11 24ZM11 2.877L9.8045 3.1185C8.44844 3.3948 7.2295 4.13116 6.35398 5.20293C5.47846 6.27471 5.00015 7.61608 5 9C5 9.942 4.799 12.2955 4.3115 14.613C4.0715 15.7635 3.7475 16.962 3.317 18H18.683C18.2525 16.962 17.93 15.765 17.6885 14.613C17.201 12.2955 17 9.942 17 9C16.9995 7.61634 16.521 6.27532 15.6455 5.20385C14.7701 4.13238 13.5513 3.39625 12.1955 3.12L11 2.8755V2.877ZM20.33 18C20.6645 18.6705 21.0515 19.2015 21.5 19.5H0.5C0.9485 19.2015 1.3355 18.6705 1.67 18C3.02 15.3 3.5 10.32 3.5 9C3.5 5.37 6.08 2.34 9.5075 1.6485C9.48656 1.43993 9.50958 1.22929 9.57505 1.03016C9.64052 0.831031 9.74701 0.647835 9.88763 0.492387C10.0283 0.33694 10.1999 0.212692 10.3915 0.127657C10.5831 0.042622 10.7904 -0.00131226 11 -0.00131226C11.2096 -0.00131226 11.4169 0.042622 11.6085 0.127657C11.8001 0.212692 11.9717 0.33694 12.1124 0.492387C12.253 0.647835 12.3595 0.831031 12.4249 1.03016C12.4904 1.22929 12.5134 1.43993 12.4925 1.6485C14.1879 1.99335 15.7121 2.91354 16.8069 4.25325C17.9016 5.59296 18.4998 7.26986 18.5 9C18.5 10.32 18.98 15.3 20.33 18Z" fill="#424242"/>
</svg>
