<svg width="32" height="24" viewBox="0 0 32 24" fill="none" xmlns="http://www.w3.org/2000/svg">
<path d="M21 13C21 14.3261 20.4732 15.5979 19.5355 16.5355C18.5979 17.4732 17.3261 18 16 18C14.6739 18 13.4021 17.4732 12.4645 16.5355C11.5268 15.5979 11 14.3261 11 13C11 11.6739 11.5268 10.4021 12.4645 9.46447C13.4021 8.52678 14.6739 8 16 8C17.3261 8 18.5979 8.52678 19.5355 9.46447C20.4732 10.4021 21 11.6739 21 13Z" fill="white"/>
<path d="M4 4C2.93913 4 1.92172 4.42143 1.17157 5.17157C0.421427 5.92172 0 6.93913 0 8V20C0 21.0609 0.421427 22.0783 1.17157 22.8284C1.92172 23.5786 2.93913 24 4 24H28C29.0609 24 30.0783 23.5786 30.8284 22.8284C31.5786 22.0783 32 21.0609 32 20V8C32 6.93913 31.5786 5.92172 30.8284 5.17157C30.0783 4.42143 29.0609 4 28 4H25.656C24.5952 3.99977 23.578 3.5782 22.828 2.828L21.172 1.172C20.422 0.421802 19.4048 0.00022655 18.344 0H13.656C12.5952 0.00022655 11.578 0.421802 10.828 1.172L9.172 2.828C8.42203 3.5782 7.40478 3.99977 6.344 4H4ZM5 8C4.73478 8 4.48043 7.89464 4.29289 7.70711C4.10536 7.51957 4 7.26522 4 7C4 6.73478 4.10536 6.48043 4.29289 6.29289C4.48043 6.10536 4.73478 6 5 6C5.26522 6 5.51957 6.10536 5.70711 6.29289C5.89464 6.48043 6 6.73478 6 7C6 7.26522 5.89464 7.51957 5.70711 7.70711C5.51957 7.89464 5.26522 8 5 8ZM23 13C23 14.8565 22.2625 16.637 20.9497 17.9497C19.637 19.2625 17.8565 20 16 20C14.1435 20 12.363 19.2625 11.0503 17.9497C9.7375 16.637 9 14.8565 9 13C9 11.1435 9.7375 9.36301 11.0503 8.05025C12.363 6.7375 14.1435 6 16 6C17.8565 6 19.637 6.7375 20.9497 8.05025C22.2625 9.36301 23 11.1435 23 13Z" fill="white"/>
</svg>
