<svg width="24" height="25" viewBox="0 0 24 25" fill="none" xmlns="http://www.w3.org/2000/svg">
<rect y="0.400024" width="24" height="24" rx="12" fill="#0CBA69"/>
<path d="M16.455 7.855C16.6663 7.65384 16.9475 7.54262 17.2392 7.54483C17.531 7.54704 17.8104 7.66249 18.0187 7.86684C18.2269 8.07118 18.3476 8.34842 18.3553 8.64007C18.363 8.93171 18.2571 9.21495 18.06 9.43L12.075 16.915C11.9721 17.0259 11.8479 17.1148 11.7098 17.1766C11.5717 17.2383 11.4226 17.2716 11.2714 17.2744C11.1201 17.2772 10.9699 17.2494 10.8296 17.1929C10.6894 17.1363 10.5619 17.052 10.455 16.945L6.48599 12.976C6.37546 12.873 6.28681 12.7488 6.22532 12.6108C6.16383 12.4728 6.13077 12.3238 6.1281 12.1728C6.12544 12.0217 6.15323 11.8717 6.20981 11.7316C6.26639 11.5915 6.35061 11.4643 6.45743 11.3574C6.56426 11.2506 6.69151 11.1664 6.8316 11.1098C6.97168 11.0532 7.12172 11.0255 7.27278 11.0281C7.42383 11.0308 7.5728 11.0638 7.7108 11.1253C7.8488 11.1868 7.973 11.2755 8.07599 11.386L11.217 14.5255L16.4265 7.888C16.4359 7.87646 16.4459 7.86544 16.4565 7.855H16.455Z" fill="white"/>
</svg>
