<svg width="14" height="17" viewBox="0 0 14 17" fill="none" xmlns="http://www.w3.org/2000/svg">
<path d="M5.5 1.5H8.5C8.63261 1.5 8.75979 1.55268 8.85355 1.64645C8.94732 1.74021 9 1.86739 9 2V3H5V2C5 1.86739 5.05268 1.74021 5.14645 1.64645C5.24021 1.55268 5.36739 1.5 5.5 1.5ZM10 3V2C10 1.60218 9.84196 1.22064 9.56066 0.93934C9.27936 0.658035 8.89782 0.5 8.5 0.5L5.5 0.5C5.10218 0.5 4.72064 0.658035 4.43934 0.93934C4.15804 1.22064 4 1.60218 4 2V3H1.506C1.50267 2.99997 1.49933 2.99997 1.496 3H0.5C0.367392 3 0.240215 3.05268 0.146447 3.14645C0.0526784 3.24021 0 3.36739 0 3.5C0 3.63261 0.0526784 3.75979 0.146447 3.85355C0.240215 3.94732 0.367392 4 0.5 4H1.038L1.891 14.66C1.93122 15.1612 2.15875 15.6289 2.52827 15.9698C2.8978 16.3108 3.38219 16.5001 3.885 16.5H10.115C10.6178 16.5001 11.1022 16.3108 11.4717 15.9698C11.8412 15.6289 12.0688 15.1612 12.109 14.66L12.962 4H13.5C13.6326 4 13.7598 3.94732 13.8536 3.85355C13.9473 3.75979 14 3.63261 14 3.5C14 3.36739 13.9473 3.24021 13.8536 3.14645C13.7598 3.05268 13.6326 3 13.5 3H12.505C12.5017 2.99997 12.4983 2.99997 12.495 3H10ZM11.958 4L11.112 14.58C11.0919 14.8306 10.9781 15.0644 10.7934 15.2349C10.6086 15.4054 10.3664 15.5001 10.115 15.5H3.885C3.6336 15.5001 3.3914 15.4054 3.20664 15.2349C3.02188 15.0644 2.90811 14.8306 2.888 14.58L2.042 4H11.958ZM4.471 5C4.60333 4.99235 4.73329 5.03756 4.8323 5.1257C4.93131 5.21383 4.99127 5.33767 4.999 5.47L5.499 13.97C5.50425 14.1008 5.45802 14.2284 5.37022 14.3255C5.28242 14.4225 5.16006 14.4813 5.02941 14.4892C4.89876 14.497 4.77024 14.4533 4.67144 14.3675C4.57265 14.2816 4.51145 14.1605 4.501 14.03L4 5.53C3.99594 5.46431 4.00489 5.39847 4.02633 5.33625C4.04777 5.27403 4.08129 5.21665 4.12495 5.16741C4.16862 5.11817 4.22158 5.07804 4.28079 5.04931C4.34 5.02058 4.4043 5.00382 4.47 5H4.471ZM9.529 5C9.5947 5.00382 9.659 5.02058 9.71821 5.04931C9.77742 5.07804 9.83038 5.11817 9.87405 5.16741C9.91771 5.21665 9.95123 5.27403 9.97267 5.33625C9.99411 5.39847 10.0031 5.46431 9.999 5.53L9.499 14.03C9.49633 14.0964 9.48044 14.1617 9.45224 14.2219C9.42405 14.2821 9.38413 14.3361 9.33481 14.3807C9.28549 14.4254 9.22777 14.4597 9.16503 14.4817C9.10228 14.5037 9.03578 14.513 8.9694 14.509C8.90302 14.505 8.8381 14.4878 8.77845 14.4585C8.7188 14.4291 8.6656 14.3881 8.62199 14.3379C8.57837 14.2877 8.5452 14.2293 8.52443 14.1661C8.50365 14.103 8.49569 14.0363 8.501 13.97L9.001 5.47C9.00873 5.33767 9.06869 5.21383 9.1677 5.1257C9.26671 5.03756 9.39667 4.99235 9.529 5ZM7 5C7.13261 5 7.25979 5.05268 7.35355 5.14645C7.44732 5.24021 7.5 5.36739 7.5 5.5V14C7.5 14.1326 7.44732 14.2598 7.35355 14.3536C7.25979 14.4473 7.13261 14.5 7 14.5C6.86739 14.5 6.74021 14.4473 6.64645 14.3536C6.55268 14.2598 6.5 14.1326 6.5 14V5.5C6.5 5.36739 6.55268 5.24021 6.64645 5.14645C6.74021 5.05268 6.86739 5 7 5Z" fill="#424242"/>
</svg>
