<svg width="14" height="8" viewBox="0 0 14 8" fill="none" xmlns="http://www.w3.org/2000/svg">
<path fill-rule="evenodd" clip-rule="evenodd" d="M6.64602 7.35396C6.69247 7.40052 6.74764 7.43747 6.80839 7.46267C6.86913 7.48788 6.93425 7.50085 7.00002 7.50085C7.06579 7.50085 7.13091 7.48788 7.19165 7.46267C7.2524 7.43747 7.30758 7.40052 7.35402 7.35396L13.354 1.35396C13.4479 1.26007 13.5007 1.13274 13.5007 0.999961C13.5007 0.867185 13.4479 0.739848 13.354 0.645961C13.2601 0.552074 13.1328 0.49933 13 0.49933C12.8672 0.49933 12.7399 0.552074 12.646 0.645961L7.00002 6.29296L1.35402 0.645961C1.26013 0.552074 1.1328 0.49933 1.00002 0.49933C0.867245 0.49933 0.739908 0.552074 0.646021 0.645961C0.552135 0.739848 0.49939 0.867185 0.49939 0.999961C0.49939 1.13274 0.552135 1.26007 0.646021 1.35396L6.64602 7.35396Z" fill="#121832"/>
</svg>
