<svg width="15" height="15" viewBox="0 0 15 15" fill="none" xmlns="http://www.w3.org/2000/svg">
<path d="M14.502 1.44003C14.5954 1.53375 14.6479 1.66069 14.6479 1.79303C14.6479 1.92536 14.5954 2.0523 14.502 2.14603L13.459 3.19003L11.459 1.19003L12.502 0.146027C12.5958 0.0522915 12.7229 -0.000366211 12.8555 -0.000366211C12.9881 -0.000366211 13.1152 0.0522915 13.209 0.146027L14.502 1.43903V1.44003ZM12.752 3.89603L10.752 1.89603L3.939 8.71003C3.88396 8.76505 3.84253 8.83217 3.818 8.90603L3.013 11.32C2.9984 11.364 2.99633 11.4112 3.00701 11.4564C3.0177 11.5015 3.04072 11.5427 3.07351 11.5755C3.10629 11.6083 3.14755 11.6313 3.19267 11.642C3.23779 11.6527 3.28499 11.6506 3.329 11.636L5.743 10.831C5.81676 10.8068 5.88387 10.7657 5.939 10.711L12.752 3.89603Z" fill="#424242"/>
<path fill-rule="evenodd" clip-rule="evenodd" d="M0 13C0 13.3979 0.158035 13.7794 0.43934 14.0607C0.720644 14.342 1.10218 14.5 1.5 14.5H12.5C12.8978 14.5 13.2794 14.342 13.5607 14.0607C13.842 13.7794 14 13.3979 14 13V7.00003C14 6.86742 13.9473 6.74024 13.8536 6.64647C13.7598 6.55271 13.6326 6.50003 13.5 6.50003C13.3674 6.50003 13.2402 6.55271 13.1464 6.64647C13.0527 6.74024 13 6.86742 13 7.00003V13C13 13.1326 12.9473 13.2598 12.8536 13.3536C12.7598 13.4473 12.6326 13.5 12.5 13.5H1.5C1.36739 13.5 1.24021 13.4473 1.14645 13.3536C1.05268 13.2598 1 13.1326 1 13V2.00003C1 1.86742 1.05268 1.74024 1.14645 1.64647C1.24021 1.55271 1.36739 1.50003 1.5 1.50003H8C8.13261 1.50003 8.25979 1.44735 8.35355 1.35358C8.44732 1.25981 8.5 1.13264 8.5 1.00003C8.5 0.867419 8.44732 0.740242 8.35355 0.646474C8.25979 0.552705 8.13261 0.500027 8 0.500027H1.5C1.10218 0.500027 0.720644 0.658062 0.43934 0.939367C0.158035 1.22067 0 1.6022 0 2.00003V13Z" fill="#424242"/>
</svg>
