<svg width="22" height="22" viewBox="0 0 22 22" fill="none" xmlns="http://www.w3.org/2000/svg">
<path d="M0.745605 1.25C0.745605 1.05109 0.82871 0.860322 0.976638 0.71967C1.12457 0.579018 1.3252 0.5 1.5344 0.5H20.4654C20.6746 0.5 20.8753 0.579018 21.0232 0.71967C21.1711 0.860322 21.2542 1.05109 21.2542 1.25V4.25C21.2542 4.43496 21.1823 4.61339 21.0523 4.751L14.1551 12.038V19.25C14.155 19.4073 14.1028 19.5607 14.006 19.6883C13.9091 19.8159 13.7726 19.9113 13.6156 19.961L8.8828 21.461C8.76428 21.4985 8.63808 21.5088 8.51459 21.4909C8.3911 21.4729 8.27385 21.4274 8.17249 21.358C8.07113 21.2886 7.98856 21.1972 7.93158 21.0915C7.8746 20.9858 7.84484 20.8688 7.84474 20.75V12.038L0.947537 4.751C0.817556 4.61339 0.74564 4.43496 0.745605 4.25V1.25ZM2.32319 2V3.962L9.2204 11.249C9.35038 11.3866 9.4223 11.565 9.42233 11.75V19.709L12.5775 18.71V11.75C12.5775 11.565 12.6495 11.3866 12.7794 11.249L19.6766 3.962V2H2.32319Z" fill="#424242"/>
</svg>
