<svg width="16" height="16" viewBox="0 0 16 16" fill="none" xmlns="http://www.w3.org/2000/svg">
<g clip-path="url(#clip0_38_1979)">
<rect width="16" height="16" fill="white" fill-opacity="0.01"/>
<g clip-path="url(#clip1_38_1979)">
<path d="M13.9996 0.999146C14.2649 0.999146 14.5192 1.1045 14.7067 1.29204C14.8943 1.47958 14.9996 1.73393 14.9996 1.99915V13.9991C14.9996 14.2644 14.8943 14.5187 14.7067 14.7063C14.5192 14.8938 14.2649 14.9991 13.9996 14.9991H1.99963C1.73442 14.9991 1.48006 14.8938 1.29253 14.7063C1.10499 14.5187 0.999634 14.2644 0.999634 13.9991V1.99915C0.999634 1.73393 1.10499 1.47958 1.29253 1.29204C1.48006 1.1045 1.73442 0.999146 1.99963 0.999146H13.9996ZM1.99963 -0.000854492C1.4692 -0.000854492 0.960493 0.209859 0.58542 0.584932C0.210348 0.960005 -0.000366211 1.46871 -0.000366211 1.99915V13.9991C-0.000366211 14.5296 0.210348 15.0383 0.58542 15.4134C0.960493 15.7884 1.4692 15.9991 1.99963 15.9991H13.9996C14.5301 15.9991 15.0388 15.7884 15.4138 15.4134C15.7889 15.0383 15.9996 14.5296 15.9996 13.9991V1.99915C15.9996 1.46871 15.7889 0.960005 15.4138 0.584932C15.0388 0.209859 14.5301 -0.000854492 13.9996 -0.000854492H1.99963Z" fill="#0047CF"/>
<path d="M7.99963 3.99915C8.13224 3.99915 8.25942 4.05182 8.35319 4.14559C8.44696 4.23936 8.49963 4.36654 8.49963 4.49915V7.49915H11.4996C11.6322 7.49915 11.7594 7.55182 11.8532 7.64559C11.947 7.73936 11.9996 7.86654 11.9996 7.99915C11.9996 8.13175 11.947 8.25893 11.8532 8.3527C11.7594 8.44647 11.6322 8.49915 11.4996 8.49915H8.49963V11.4991C8.49963 11.6318 8.44696 11.7589 8.35319 11.8527C8.25942 11.9465 8.13224 11.9991 7.99963 11.9991C7.86703 11.9991 7.73985 11.9465 7.64608 11.8527C7.55231 11.7589 7.49963 11.6318 7.49963 11.4991V8.49915H4.49963C4.36703 8.49915 4.23985 8.44647 4.14608 8.3527C4.05231 8.25893 3.99963 8.13175 3.99963 7.99915C3.99963 7.86654 4.05231 7.73936 4.14608 7.64559C4.23985 7.55182 4.36703 7.49915 4.49963 7.49915H7.49963V4.49915C7.49963 4.36654 7.55231 4.23936 7.64608 4.14559C7.73985 4.05182 7.86703 3.99915 7.99963 3.99915Z" fill="#0047CF"/>
</g>
</g>
<defs>
<clipPath id="clip0_38_1979">
<rect width="16" height="16" fill="white"/>
</clipPath>
<clipPath id="clip1_38_1979">
<rect width="16" height="16" fill="white"/>
</clipPath>
</defs>
</svg>
