<svg width="16" height="12" viewBox="0 0 16 12" fill="none" xmlns="http://www.w3.org/2000/svg">
<path d="M2.18391e-09 1.5C2.18391e-09 1.10218 0.158035 0.720644 0.43934 0.43934C0.720644 0.158035 1.10218 0 1.5 0H10.5C10.8978 0 11.2794 0.158035 11.5607 0.43934C11.842 0.720644 12 1.10218 12 1.5V3H13.02C13.2447 3.0002 13.4666 3.0509 13.6691 3.14835C13.8716 3.24579 14.0496 3.3875 14.19 3.563L15.671 5.413C15.8841 5.67919 16.0001 6.01003 16 6.351V8.5C16 8.89782 15.842 9.27936 15.5607 9.56066C15.2794 9.84196 14.8978 10 14.5 10H14C14 10.5304 13.7893 11.0391 13.4142 11.4142C13.0391 11.7893 12.5304 12 12 12C11.4696 12 10.9609 11.7893 10.5858 11.4142C10.2107 11.0391 10 10.5304 10 10H5C5.00058 10.2666 4.94785 10.5306 4.84492 10.7765C4.742 11.0224 4.59094 11.2453 4.40065 11.432C4.21035 11.6187 3.98465 11.7654 3.73682 11.8636C3.48899 11.9619 3.22402 12.0095 2.95749 12.0039C2.69097 11.9982 2.42827 11.9393 2.18483 11.8306C1.94139 11.722 1.72214 11.5658 1.53995 11.3712C1.35776 11.1765 1.21632 10.9475 1.12393 10.6974C1.03155 10.4473 0.990095 10.1813 1.002 9.915C0.709048 9.81189 0.455323 9.62039 0.275844 9.36694C0.0963656 9.11348 -1.6752e-05 8.81057 2.18391e-09 8.5L2.18391e-09 1.5ZM1.294 8.956C1.4748 8.65999 1.72951 8.41612 2.0331 8.24836C2.33669 8.0806 2.6787 7.99472 3.02553 7.99916C3.37235 8.0036 3.71206 8.0982 4.01125 8.27368C4.31045 8.44916 4.55883 8.69946 4.732 9H10.268C10.4439 8.69627 10.6963 8.4439 11 8.268V1.5C11 1.36739 10.9473 1.24021 10.8536 1.14645C10.7598 1.05268 10.6326 1 10.5 1H1.5C1.36739 1 1.24021 1.05268 1.14645 1.14645C1.05268 1.24021 1 1.36739 1 1.5V8.5C0.999921 8.59624 1.02762 8.69046 1.07977 8.77135C1.13192 8.85223 1.20631 8.91635 1.294 8.956ZM12 8C12.3511 8.00001 12.6959 8.09243 13 8.26796C13.304 8.4435 13.5565 8.69597 13.732 9H14.5C14.6326 9 14.7598 8.94732 14.8536 8.85355C14.9473 8.75979 15 8.63261 15 8.5V6.35C14.9998 6.23653 14.961 6.12651 14.89 6.038L13.41 4.188C13.3632 4.12944 13.3039 4.08214 13.2364 4.0496C13.1689 4.01706 13.0949 4.00011 13.02 4H12V8ZM3 9C2.73478 9 2.48043 9.10536 2.29289 9.29289C2.10536 9.48043 2 9.73478 2 10C2 10.2652 2.10536 10.5196 2.29289 10.7071C2.48043 10.8946 2.73478 11 3 11C3.26522 11 3.51957 10.8946 3.70711 10.7071C3.89464 10.5196 4 10.2652 4 10C4 9.73478 3.89464 9.48043 3.70711 9.29289C3.51957 9.10536 3.26522 9 3 9ZM12 9C11.7348 9 11.4804 9.10536 11.2929 9.29289C11.1054 9.48043 11 9.73478 11 10C11 10.2652 11.1054 10.5196 11.2929 10.7071C11.4804 10.8946 11.7348 11 12 11C12.2652 11 12.5196 10.8946 12.7071 10.7071C12.8946 10.5196 13 10.2652 13 10C13 9.73478 12.8946 9.48043 12.7071 9.29289C12.5196 9.10536 12.2652 9 12 9Z" fill="#424242"/>
</svg>
