<svg width="14" height="17" viewBox="0 0 14 17" fill="none" xmlns="http://www.w3.org/2000/svg">
<path fill-rule="evenodd" clip-rule="evenodd" d="M7.00001 0.5C6.31001 0.5 5.15701 0.765 4.07201 1.06C2.96201 1.36 1.84301 1.715 1.18501 1.93C0.909897 2.02085 0.665996 2.18747 0.481322 2.4107C0.296648 2.63394 0.178693 2.90474 0.141005 3.192C-0.454995 7.669 0.928005 10.987 2.60601 13.182C3.31759 14.121 4.16603 14.9478 5.12301 15.635C5.50901 15.908 5.86701 16.117 6.17101 16.26C6.45101 16.392 6.75201 16.5 7.00001 16.5C7.24801 16.5 7.54801 16.392 7.82901 16.26C8.19549 16.0819 8.5461 15.8728 8.87701 15.635C9.834 14.9479 10.6824 14.121 11.394 13.182C13.072 10.987 14.455 7.669 13.859 3.192C13.8214 2.9046 13.7035 2.63364 13.5188 2.41023C13.3341 2.18683 13.0902 2.02003 12.815 1.929C11.8598 1.61581 10.8972 1.32573 9.92801 1.059C8.84301 0.766 7.69001 0.5 7.00001 0.5ZM9.14601 5.646C9.23989 5.55211 9.36723 5.49937 9.50001 5.49937C9.63278 5.49937 9.76012 5.55211 9.85401 5.646C9.94789 5.73989 10.0006 5.86722 10.0006 6C10.0006 6.13278 9.94789 6.26011 9.85401 6.354L6.85401 9.354C6.80756 9.40056 6.75238 9.43751 6.69164 9.46271C6.63089 9.48792 6.56577 9.50089 6.50001 9.50089C6.43424 9.50089 6.36912 9.48792 6.30837 9.46271C6.24763 9.43751 6.19245 9.40056 6.14601 9.354L4.64601 7.854C4.59952 7.80751 4.56264 7.75232 4.53748 7.69158C4.51232 7.63084 4.49937 7.56574 4.49937 7.5C4.49937 7.43426 4.51232 7.36916 4.53748 7.30842C4.56264 7.24768 4.59952 7.19249 4.64601 7.146C4.69249 7.09951 4.74768 7.06264 4.80842 7.03748C4.86916 7.01232 4.93426 6.99937 5.00001 6.99937C5.06575 6.99937 5.13085 7.01232 5.19159 7.03748C5.25233 7.06264 5.30752 7.09951 5.35401 7.146L6.50001 8.293L9.14601 5.646Z" fill="#FE7603"/>
</svg>
