<svg width="16" height="14" viewBox="0 0 16 14" fill="none" xmlns="http://www.w3.org/2000/svg">
<path d="M2.5 3C2.63261 3 2.75979 2.94732 2.85355 2.85355C2.94732 2.75979 3 2.63261 3 2.5C3 2.36739 2.94732 2.24021 2.85355 2.14645C2.75979 2.05268 2.63261 2 2.5 2C2.36739 2 2.24021 2.05268 2.14645 2.14645C2.05268 2.24021 2 2.36739 2 2.5C2 2.63261 2.05268 2.75979 2.14645 2.85355C2.24021 2.94732 2.36739 3 2.5 3ZM4.5 2.5C4.5 2.63261 4.44732 2.75979 4.35355 2.85355C4.25979 2.94732 4.13261 3 4 3C3.86739 3 3.74021 2.94732 3.64645 2.85355C3.55268 2.75979 3.5 2.63261 3.5 2.5C3.5 2.36739 3.55268 2.24021 3.64645 2.14645C3.74021 2.05268 3.86739 2 4 2C4.13261 2 4.25979 2.05268 4.35355 2.14645C4.44732 2.24021 4.5 2.36739 4.5 2.5ZM5.5 3C5.63261 3 5.75979 2.94732 5.85355 2.85355C5.94732 2.75979 6 2.63261 6 2.5C6 2.36739 5.94732 2.24021 5.85355 2.14645C5.75979 2.05268 5.63261 2 5.5 2C5.36739 2 5.24021 2.05268 5.14645 2.14645C5.05268 2.24021 5 2.36739 5 2.5C5 2.63261 5.05268 2.75979 5.14645 2.85355C5.24021 2.94732 5.36739 3 5.5 3Z" fill="#424242"/>
<path d="M2 0C1.46957 0 0.960859 0.210714 0.585786 0.585786C0.210714 0.960859 0 1.46957 0 2V12C0 12.5304 0.210714 13.0391 0.585786 13.4142C0.960859 13.7893 1.46957 14 2 14H14C14.5304 14 15.0391 13.7893 15.4142 13.4142C15.7893 13.0391 16 12.5304 16 12V2C16 1.46957 15.7893 0.960859 15.4142 0.585786C15.0391 0.210714 14.5304 0 14 0H2ZM14 1C14.2652 1 14.5196 1.10536 14.7071 1.29289C14.8946 1.48043 15 1.73478 15 2V4H1V2C1 1.73478 1.10536 1.48043 1.29289 1.29289C1.48043 1.10536 1.73478 1 2 1H14ZM1 12V5H5V13H2C1.73478 13 1.48043 12.8946 1.29289 12.7071C1.10536 12.5196 1 12.2652 1 12ZM6 13V5H15V12C15 12.2652 14.8946 12.5196 14.7071 12.7071C14.5196 12.8946 14.2652 13 14 13H6Z" fill="#424242"/>
</svg>
