<svg width="14" height="8" viewBox="0 0 14 8" fill="none" xmlns="http://www.w3.org/2000/svg">
<path fill-rule="evenodd" clip-rule="evenodd" d="M0.645978 7.35402C0.692424 7.40059 0.7476 7.43753 0.808345 7.46273C0.86909 7.48794 0.934211 7.50092 0.999978 7.50092C1.06575 7.50092 1.13087 7.48794 1.19161 7.46273C1.25236 7.43753 1.30753 7.40059 1.35398 7.35402L6.99998 1.70702L12.646 7.35402C12.6925 7.40051 12.7477 7.43739 12.8084 7.46255C12.8691 7.4877 12.9342 7.50065 13 7.50065C13.0657 7.50065 13.1308 7.4877 13.1916 7.46255C13.2523 7.43739 13.3075 7.40051 13.354 7.35402C13.4005 7.30753 13.4373 7.25234 13.4625 7.19161C13.4877 7.13087 13.5006 7.06577 13.5006 7.00002C13.5006 6.93428 13.4877 6.86918 13.4625 6.80844C13.4373 6.7477 13.4005 6.69251 13.354 6.64602L7.35398 0.646022C7.30753 0.599459 7.25236 0.562516 7.19161 0.53731C7.13087 0.512103 7.06575 0.499128 6.99998 0.499128C6.93421 0.499128 6.86909 0.512103 6.80834 0.53731C6.7476 0.562516 6.69242 0.599459 6.64598 0.646022L0.645978 6.64602C0.599415 6.69247 0.562472 6.74764 0.537266 6.80839C0.512059 6.86913 0.499084 6.93425 0.499084 7.00002C0.499084 7.06579 0.512059 7.13091 0.537266 7.19166C0.562472 7.2524 0.599415 7.30758 0.645978 7.35402Z" fill="#121832"/>
</svg>
