<svg width="10" height="13" viewBox="0 0 10 13" fill="none" xmlns="http://www.w3.org/2000/svg">
<path fill-rule="evenodd" clip-rule="evenodd" d="M3 2C3 1.60218 3.15804 1.22064 3.43934 0.93934C3.72064 0.658035 4.10218 0.5 4.5 0.5H5.5C5.89782 0.5 6.27936 0.658035 6.56066 0.93934C6.84196 1.22064 7 1.60218 7 2V3C7 3.39782 6.84196 3.77936 6.56066 4.06066C6.27936 4.34196 5.89782 4.5 5.5 4.5V5.5H8C8.13261 5.5 8.25979 5.55268 8.35355 5.64645C8.44732 5.74021 8.5 5.86739 8.5 6V7C8.5 7.13261 8.44732 7.25979 8.35355 7.35355C8.25979 7.44732 8.13261 7.5 8 7.5C7.86739 7.5 7.74021 7.44732 7.64645 7.35355C7.55268 7.25979 7.5 7.13261 7.5 7V6.5H2.5V7C2.5 7.13261 2.44732 7.25979 2.35355 7.35355C2.25979 7.44732 2.13261 7.5 2 7.5C1.86739 7.5 1.74021 7.44732 1.64645 7.35355C1.55268 7.25979 1.5 7.13261 1.5 7V6C1.5 5.86739 1.55268 5.74021 1.64645 5.64645C1.74021 5.55268 1.86739 5.5 2 5.5H4.5V4.5C4.10218 4.5 3.72064 4.34196 3.43934 4.06066C3.15804 3.77936 3 3.39782 3 3V2ZM0 10C0 9.60218 0.158035 9.22064 0.43934 8.93934C0.720644 8.65804 1.10218 8.5 1.5 8.5H2.5C2.89782 8.5 3.27936 8.65804 3.56066 8.93934C3.84196 9.22064 4 9.60218 4 10V11C4 11.3978 3.84196 11.7794 3.56066 12.0607C3.27936 12.342 2.89782 12.5 2.5 12.5H1.5C1.10218 12.5 0.720644 12.342 0.43934 12.0607C0.158035 11.7794 0 11.3978 0 11V10ZM6 10C6 9.60218 6.15804 9.22064 6.43934 8.93934C6.72064 8.65804 7.10218 8.5 7.5 8.5H8.5C8.89782 8.5 9.27936 8.65804 9.56066 8.93934C9.84196 9.22064 10 9.60218 10 10V11C10 11.3978 9.84196 11.7794 9.56066 12.0607C9.27936 12.342 8.89782 12.5 8.5 12.5H7.5C7.10218 12.5 6.72064 12.342 6.43934 12.0607C6.15804 11.7794 6 11.3978 6 11V10Z" fill="#EFA11F"/>
</svg>
